<?xml version="1.0" encoding="utf-8"?>
<!-- Generator: Adobe Illustrator 24.0.2, SVG Export Plug-In . SVG Version: 6.00 Build 0)  -->
<svg version="1.1" id="Layer_1" xmlns="http://www.w3.org/2000/svg" xmlns:xlink="http://www.w3.org/1999/xlink" x="0px" y="0px"
	 viewBox="0 0 800 800" style="enable-background:new 0 0 800 800;" xml:space="preserve">
<style type="text/css">
	.st0{fill:#F2F2F2;}
</style>
<title>github</title>
<g id="Layer_2_1_">
	<g id="icons_Q2">
		<path class="st0" d="M403.4,30.7c-198.8-2.9-362.3,156-365.1,354.8c-2.3,159,100,300.7,251.8,348.5c16.7,3.3,30-15,30-30v-48.3
			c-100,21.7-131.7-48.3-131.7-48.3c-6.5-21.1-19.3-39.7-36.7-53.3c-33.3-23.3,1.7-21.7,1.7-21.7c22.6,1.8,43,14.2,55,33.3
			c28.3,48.3,91.7,43.3,111.7,35c-1.8-16.6,1.1-33.3,8.3-48.3c-113.3-20-175-86.7-175-176.7c-1.2-46.9,16.2-92.5,48.3-126.7
			c-18.3-33.7-16.3-74.8,5-106.7c40.7,0.8,79.2,18.3,106.7,48.3c28.9-9.9,59.4-14.4,90-13.3c30.4-0.9,60.8,3,90,11.7
			c27.8-29.3,66.3-46.1,106.7-46.7c20.8,31.9,23.4,72.4,6.7,106.7c31.6,34.5,48.3,80,46.7,126.7c0,90-61.7,156.7-175,176.7
			c7.2,15,10.1,31.8,8.3,48.3V704c0,16.6,13.4,30,30,30c0.6,0,1.1,0,1.7,0c188.7-65.5,288.6-271.5,223.1-460.2
			C691.5,129.5,556.1,32.2,403.4,30.7z"/>
	</g>
</g>
</svg>
